HIERARCHY
ROOT Hips
{
  OFFSET -31.5692 30.0904 122.763
  CHANNELS 6 Xposition Yposition Zposition Zrotation Xrotation Yrotation
  JOINT LeftUpLeg
  {
    OFFSET 8.64259 1.95398 -2.38835
    CHANNELS 3 Zrotation Xrotation Yrotation
    JOINT LeftLeg
    {
      OFFSET 43.7702 0 0
      CHANNELS 3 Zrotation Xrotation Yrotation
      JOINT LeftFoot
      {
        OFFSET 40.6238 0 0
        CHANNELS 3 Zrotation Xrotation Yrotation
        JOINT LeftToeBase
        {
          OFFSET 12.7242 0 0
          CHANNELS 3 Zrotation Xrotation Yrotation
          End Site
          {
            OFFSET 0 0 0
          }
        }
      }
    }
  }
  JOINT RightUpLeg
  {
    OFFSET -8.2249 1.95398 -2.59336
    CHANNELS 3 Zrotation Xrotation Yrotation
    JOINT RightLeg
    {
      OFFSET 43.5653 0 0
      CHANNELS 3 Zrotation Xrotation Yrotation
      JOINT RightFoot
      {
        OFFSET 40.6238 0 0
        CHANNELS 3 Zrotation Xrotation Yrotation
        JOINT RightToeBase
        {
          OFFSET 12.7242 0 0
          CHANNELS 3 Zrotation Xrotation Yrotation
          End Site
          {
            OFFSET 0 0 0
          }
        }
      }
    }
  }
  JOINT Spine
  {
    OFFSET 0.165834 0.87714 6.61349
    CHANNELS 3 Zrotation Xrotation Yrotation
    JOINT Spine1
    {
      OFFSET 7.38963 1.71661e-005 0
      CHANNELS 3 Zrotation Xrotation Yrotation
      JOINT Spine2
      {
        OFFSET 11.9445 1.14441e-005 0
        CHANNELS 3 Zrotation Xrotation Yrotation
        JOINT Spine3
        {
          OFFSET 14.7254 4.19617e-005 0
          CHANNELS 3 Zrotation Xrotation Yrotation
          JOINT Spine4
          {
            OFFSET 10.9679 0 0
            CHANNELS 3 Zrotation Xrotation Yrotation
            JOINT RightShoulder
            {
              OFFSET 2.46616 -1.6653 3.69651
              CHANNELS 3 Zrotation Xrotation Yrotation
              JOINT RightArm
              {
                OFFSET 13.0012 0 0
                CHANNELS 3 Zrotation Xrotation Yrotation
                JOINT RightForeArm
                {
                  OFFSET 28.7848 1.62311e-005 0
                  CHANNELS 3 Zrotation Xrotation Yrotation
                  JOINT RightHand
                  {
                    OFFSET 26.5688 1.62095e-005 0
                    CHANNELS 3 Zrotation Xrotation Yrotation
                    End Site
                    {
                      OFFSET 0 0 0
                    }
                  }
                }
              }
            }
            JOINT LeftShoulder
            {
              OFFSET 2.38034 -1.29275 -3.7523
              CHANNELS 3 Zrotation Xrotation Yrotation
              JOINT LeftArm
              {
                OFFSET 16.3182 6.07031e-005 0
                CHANNELS 3 Zrotation Xrotation Yrotation
                JOINT LeftForeArm
                {
                  OFFSET 27.0901 0 0
                  CHANNELS 3 Zrotation Xrotation Yrotation
                  JOINT LeftHand
                  {
                    OFFSET 24.5451 1.51738e-005 0
                    CHANNELS 3 Zrotation Xrotation Yrotation
                    End Site
                    {
                      OFFSET 0 0 0
                    }
                  }
                }
              }
            }
            JOINT Neck
            {
              OFFSET 5.0226 -0.0266342 0
              CHANNELS 3 Zrotation Xrotation Yrotation
              JOINT Head
              {
                OFFSET 6.69364 2.86102e-005 0
                CHANNELS 3 Zrotation Xrotation Yrotation
                End Site
                {
                  OFFSET 0 0 0
                }
              }
            }
          }
        }
      }
    }
  }
}
MOTION
Frames:	18
Frame Time:	0.0416667
7.45825 101.313 26.5024 -141.356 -83.8274 -141.834 -173.358 -3.89021 89.3582 -11.3768 7.39667 0.326799 70.1149 6.20351 0.218535 19.0793 -7.34318 5.75619 171.745 -2.43794 88.0308 -14.3023 -12.7552 -0.846689 68.2047 -5.17075 1.67532 27.6714 -0.138533 3.09443 0.12405 7.42501 -90.052 12.024 0.222146 -0.12801 0.353057 0.216298 -0.13768 -22.1822 0.250346 -0.0553302 -2.1696 0.250344 -0.0553382 90.5551 -31.1687 -105.236 38.7657 -9.08662 -8.15769 6.18637 -36.8813 -14.749 -24.3069 -0.651525 -8.58522 -86.2183 -51.4999 84.6263 -24.3539 15.0706 -12.0355 -4.08013 16.8049 -3.2466 4.95268 0.219119 -9.43575 9.56759 0.17873 -1.03555 -9.47076 0.294734 2.14273 
7.45924 101.306 26.4953 -139.926 -83.767 -140.356 -173.579 -3.82207 89.2144 -11.6479 6.59909 0.574888 71.0772 6.41501 -1.2799 17.8563 -9.42367 8.56493 171.95 -2.37973 88.1024 -14.2411 -14.2399 -1.07727 67.5395 -4.86243 1.21654 27.6957 0.0108089 2.33579 0.212985 7.40722 -90.1084 12.0598 0.372267 -0.256908 0.388934 0.360598 -0.273052 -22.1466 0.432269 -0.133148 -2.13392 0.432265 -0.133152 90.9838 -30.6591 -104.572 38.768 -10.8237 -7.40866 6.66291 -37.6851 -15.8408 -26.6325 -1.00924 -6.69654 -86.9131 -52.3381 83.7296 -23.7032 15.2293 -12.3507 -4.21475 16.4535 -2.93364 5.5872 0.196539 -8.99276 8.92774 0.162639 -0.292497 -8.55425 0.158207 1.49886 
7.46803 101.295 26.4353 -134.885 -83.5901 -135.069 -173.393 -3.45246 89.4416 -11.8389 6.27933 0.426574 71.3327 6.47009 -1.15214 17.9573 -9.43897 8.71638 172.306 -2.1719 88.4571 -14.0881 -14.3726 -1.21017 67.5857 -5.05278 0.739261 27.0885 -0.0132722 3.67207 0.322163 7.37647 -90.1669 12.1219 0.561504 -0.395133 0.451027 0.543566 -0.419476 -22.085 0.654304 -0.208111 -2.07229 0.65429 -0.208116 91.3154 -30.3773 -104.013 39.109 -9.38213 -7.96674 6.33457 -38.7462 -14.5895 -24.4844 -1.13285 -6.21209 -87.3801 -52.6524 83.0964 -23.7058 15.112 -12.4335 -4.27841 16.012 -2.77651 8.12015 0.0844072 -8.21688 8.49244 -0.0958353 -0.20073 -8.18674 -0.129606 1.93877 
7.49012 101.308 26.3295 -135.405 -83.6289 -135.731 -173.393 -3.39285 89.3365 -11.9069 6.43968 0.352915 71.2597 6.43219 -1.07089 17.7774 -9.25977 8.1323 172.233 -2.07666 88.3175 -14.1148 -14.4014 -1.21863 67.5644 -5.02679 0.895239 27.2855 0.0268368 3.09626 0.30657 7.38017 -90.1611 12.1144 0.533327 -0.380241 0.443525 0.516065 -0.403353 -22.0923 0.622939 -0.202377 -2.07969 0.622937 -0.202382 91.2506 -30.2651 -104.18 39.091 -9.61613 -7.87126 6.92652 -38.4837 -14.1572 -24.9501 -1.06972 -6.53193 -87.3375 -52.7872 83.1806 -23.3785 15.6573 -12.347 -4.4929 15.1767 -3.16442 12.3801 0.0878215 -6.13351 8.70397 0.0322103 0.127098 -8.71092 -0.0604173 1.43345 
7.52382 101.333 26.2979 -135.399 -83.5085 -135.757 -173.442 -3.64311 89.2645 -11.5637 6.40839 0.37302 71.0964 6.44498 -0.899523 17.6967 -9.31978 8.15389 172.317 -1.98006 88.3025 -14.519 -14.1379 -1.34383 67.2926 -4.57059 1.84468 28.1401 -0.115194 1.99112 0.316259 7.38819 -90.1697 12.0984 0.548587 -0.398896 0.427476 0.530496 -0.422661 -22.1084 0.6431 -0.215574 -2.09578 0.643103 -0.215585 91.2443 -30.0861 -104.255 39.2387 -9.6041 -7.76997 7.05966 -38.1319 -14.0248 -24.6047 -1.00425 -6.81861 -87.4192 -52.8278 83.0679 -23.2139 16.1399 -12.3445 -4.92775 14.312 -3.23724 17.8156 0.23136 -4.03145 8.86136 0.0375029 0.235001 -9.04347 -0.0745962 1.26153 
7.59647 101.322 26.2698 -135.504 -83.6166 -135.88 -173.535 -3.42306 89.1813 -11.875 6.20984 0.445588 71.3353 6.45983 -1.27538 17.5822 -9.36254 8.09934 172.192 -1.99266 88.231 -14.3216 -14.467 -1.24991 67.4899 -4.91298 0.81071 28.0918 -0.198198 2.49516 0.284619 7.35172 -90.1573 12.1713 0.49133 -0.368459 0.50038 0.474638 -0.389737 -22.0354 0.579349 -0.203758 -2.02271 0.57935 -0.203761 91.0841 -30.053 -104.585 39.4311 -9.94797 -7.4339 6.88608 -37.8457 -14.6261 -25.2288 -1.00464 -6.75806 -87.2384 -52.4598 83.2728 -23.6913 16.2192 -11.8826 -4.81006 13.6517 -3.37532 23.061 0.595066 -1.94005 8.43975 0.0459232 -0.100471 -8.87207 -0.00841326 1.60982 
7.5731 101.324 26.2697 -133.417 -83.5622 -133.485 -173.346 -3.16781 89.5034 -12.0167 6.27787 0.36301 71.2813 6.42896 -1.0376 17.9012 -9.29676 8.35976 172.415 -1.98485 88.5579 -14.1374 -14.2857 -1.23767 67.481 -4.88625 1.1122 27.371 0.0265386 2.93486 0.294813 7.33855 -90.1926 12.1977 0.494856 -0.439486 0.526737 0.475037 -0.46085 -22.0089 0.60406 -0.27044 -1.99625 0.604057 -0.270448 90.9767 -30.0283 -104.808 39.4728 -9.34792 -7.43334 6.34413 -37.9874 -14.6067 -23.7022 -1.01426 -6.70096 -87.1351 -52.4284 83.4186 -23.8943 16.0505 -11.7801 -4.31495 13.7001 -3.59231 28.0805 1.15735 0.131504 8.34543 0.0305612 -0.115241 -8.74743 -0.0212572 1.66765 
7.48331 101.327 26.2005 -132.154 -83.678 -132.303 -173.36 -2.93648 89.5071 -12.0402 6.2418 0.323189 71.2996 6.42851 -1.15029 17.6691 -9.29213 8.06487 172.547 -1.71356 88.6335 -14.1974 -14.2373 -1.29476 67.1107 -4.56839 1.48835 28.0019 -0.115028 2.28664 0.298853 7.32702 -90.1859 12.2207 0.505981 -0.427586 0.549799 0.486668 -0.449439 -21.9859 0.611096 -0.255745 -1.97325 0.611094 -0.255745 91.0398 -30.0999 -104.657 39.2759 -9.60103 -7.49885 7.02621 -38.0346 -13.9817 -24.1512 -0.971067 -6.97834 -87.2105 -52.2829 83.2851 -23.9071 16.175 -11.9355 -4.69632 13.5634 -3.24747 33.0087 1.64457 1.37716 8.75582 0.0181407 -0.0827087 -9.28597 -0.0482976 1.6698 
7.51715 101.317 26.3008 -133.512 -83.495 -133.734 -173.491 -3.3063 89.3314 -11.9304 5.61287 0.484569 71.3465 6.3398 -1.43844 17.7071 -9.02184 7.56566 172.337 -2.06157 88.421 -14.0985 -14.1267 -1.25743 68.0645 -5.31074 1.0768 26.6204 0.333805 3.02819 0.302055 7.35035 -90.1809 12.1741 0.514825 -0.418173 0.503138 0.49593 -0.440435 -22.0326 0.616693 -0.244113 -2.01996 0.616704 -0.244117 91.1218 -30.0248 -104.52 39.4267 -10.0305 -7.46326 6.87155 -37.8518 -14.6075 -24.7687 -1.07871 -6.3274 -87.3817 -52.1489 83.0122 -24.0213 16.1717 -11.8525 -4.60571 13.7128 -3.27333 36.3363 2.04564 2.24119 8.51172 -0.119123 -0.279743 -8.90046 -0.160568 2.21157 
7.49634 101.3 26.3269 -132.56 -83.573 -132.925 -173.585 -3.2669 89.1854 -11.8401 5.79579 0.481033 71.2726 6.35499 -1.37478 18.082 -9.09195 8.16869 172.314 -1.8242 88.3143 -14.242 -14.523 -1.28263 67.3465 -4.73062 1.47718 28.0588 -0.0714846 1.94517 0.304525 7.33828 -90.1822 12.1982 0.519051 -0.421525 0.52728 0.49999 -0.443967 -22.0085 0.621738 -0.246048 -1.99585 0.621737 -0.246039 91.1412 -30.0147 -104.485 39.3262 -9.67838 -7.49302 6.55942 -37.8261 -14.699 -24.5788 -1.05361 -6.45872 -87.4334 -52.4299 82.9825 -23.6915 16.283 -11.9422 -4.81785 13.3572 -3.20195 37.7748 2.29386 2.74157 8.5443 0.019608 -0.0461066 -8.84712 -0.0720431 2.19285 
7.46023 101.292 26.3966 -133.918 -83.6527 -134.376 -173.564 -3.43474 89.1395 -11.6184 5.9998 0.429737 71.1232 6.36816 -1.32121 18.2874 -9.22598 8.69734 172.098 -1.85783 88.1492 -14.4115 -14.4146 -1.16906 67.7789 -5.0427 1.09667 27.3472 -0.00704924 3.13772 0.29131 7.34513 -90.1784 12.1844 0.494682 -0.410963 0.513502 0.476108 -0.43234 -22.0222 0.595307 -0.243294 -2.00954 0.595318 -0.243286 91.1204 -30.1116 -104.493 39.2122 -9.6005 -7.43876 6.59766 -38.1923 -14.6641 -25.1316 -1.12941 -6.14357 -87.4391 -52.5496 82.9938 -23.4742 16.4457 -11.8631 -4.99157 13.4673 -3.42137 37.5177 2.36758 2.97635 8.91583 -0.0181021 0.159049 -9.49997 -0.138423 1.65228 
7.36579 101.327 26.4142 -134.606 -83.6954 -135.021 -173.385 -3.50602 89.3322 -11.57 6.35794 0.309651 71.1788 6.50344 -1.17772 17.8427 -9.347 8.38962 172.249 -1.90705 88.3341 -14.5068 -14.1497 -1.23689 67.6944 -4.92486 1.17582 27.191 0.079968 3.05036 0.296537 7.34428 -90.1777 12.1862 0.505351 -0.410796 0.515265 0.486784 -0.432646 -22.0205 0.605453 -0.239923 -2.00781 0.605448 -0.23993 91.0765 -30.304 -104.513 39.0576 -9.48067 -7.37062 6.89351 -38.7479 -14.2407 -25.1363 -1.05206 -6.71121 -87.4463 -52.3661 82.953 -23.5498 16.4759 -11.8951 -5.08235 13.4121 -3.35621 34.5612 1.89608 1.9869 8.76959 -0.148273 -0.0992652 -9.34613 -0.213083 1.75927 
7.37255 101.311 26.4454 -136.955 -83.9371 -137.383 -173.504 -3.37431 89.2894 -11.8484 6.63822 0.447206 71.2504 6.5798 -1.11248 17.9503 -9.18668 8.19804 172.101 -1.95041 88.2663 -14.4567 -14.0071 -1.0798 67.5574 -4.83779 1.14982 28.0937 -0.177744 2.39388 0.26862 7.35366 -90.1998 12.1673 0.439431 -0.447415 0.49637 0.419311 -0.466322 -22.0391 0.553577 -0.29466 -2.02641 0.553579 -0.294659 91.0739 -30.2586 -104.534 39.0414 -9.61543 -7.42 7.18482 -37.7153 -13.9315 -26.7551 -0.718156 -8.2566 -87.583 -52.7031 82.809 -23.4683 16.1013 -12.0228 -5.0254 13.7591 -3.00718 28.2469 1.01076 -0.388279 8.80426 -0.0575092 0.327179 -9.27117 -0.19877 1.43438 
7.43255 101.272 26.5965 -136.793 -83.8086 -137.342 -173.464 -3.49242 89.1858 -12.0125 6.38068 0.335815 71.4683 6.73922 -1.32086 18.1209 -9.17656 8.38871 171.967 -2.02257 88.0411 -14.5556 -14.4855 -1.12249 68.0437 -5.22461 0.743781 27.0655 0.156938 2.94577 0.290333 7.3889 -90.2036 12.0969 0.480971 -0.459248 0.426002 0.46029 -0.479981 -22.1096 0.596749 -0.29347 -2.0969 0.596756 -0.29347 91.1473 -30.2875 -104.378 38.829 -9.40972 -7.63954 6.28612 -37.1118 -14.952 -23.3121 -0.713911 -8.31818 -87.651 -52.8235 82.7301 -23.3109 16.0641 -12.2284 -5.15906 14.3566 -2.80309 18.1763 0.0200756 -5.30288 8.9596 0.00700815 0.48031 -9.13082 -0.179866 1.68265 
7.56837 101.227 26.5423 -140.814 -84.0986 -141.684 -173.394 -3.20801 88.9799 -12.5564 6.97177 0.0248074 71.5045 7.16952 -1.05654 18.32 -8.96413 8.20456 171.641 -1.59868 87.6084 -15.4549 -14.2605 -1.03833 68.1506 -5.04493 1.03218 27.66 -0.0206624 2.55768 0.246581 7.41466 -90.1956 12.0452 0.3979 -0.433655 0.374253 0.378431 -0.450755 -22.1611 0.509832 -0.294026 -2.14844 0.509835 -0.294028 91.2318 -30.2341 -104.228 38.89 -9.7051 -7.76294 6.55083 -37.1361 -14.8191 -25.0521 -0.590773 -8.92878 -87.6491 -52.7708 82.7239 -23.1648 16.2037 -12.4375 -5.16732 14.718 -2.85373 7.22609 -0.21054 -11.146 9.22988 0.256517 0.893082 -9.51181 -0.0409052 1.83869 
7.70507 101.142 26.6031 -143.038 -83.8815 -144.175 -173.215 -3.07497 88.8333 -13.6291 6.95321 -0.325208 71.9304 7.79268 -1.22388 18.7036 -9.0022 8.7634 171.436 -1.49833 87.2113 -16.4005 -14.2891 -1.15987 68.7238 -5.17714 1.03412 27.3259 0.0832738 2.76011 0.239194 7.43493 -90.2406 12.0046 0.362088 -0.519254 0.333625 0.338886 -0.534692 -22.2014 0.501397 -0.386431 -2.18876 0.501404 -0.386425 91.4247 -29.8713 -103.968 39.0633 -9.80286 -7.94253 6.65605 -37.5373 -14.6663 -25.9622 -0.694382 -8.38553 -87.5234 -53.0949 82.9601 -23.0417 16.3428 -12.3416 -5.24584 14.1113 -3.04686 6.26655 -0.175944 -11.7607 8.61346 0.799294 2.73575 -9.36314 0.135801 1.22898 
7.87878 100.999 26.6557 -145.016 -83.4552 -146.163 -172.673 -2.80615 89.0728 -15.3771 7.20855 -0.839215 72.977 8.86072 -1.27595 18.5755 -9.15184 8.90832 171.421 -1.51304 87.0568 -17.4173 -14.208 -1.33783 69.36 -5.25547 1.17489 27.453 0.0289561 2.75317 0.241975 7.46531 -90.3411 11.9438 0.320397 -0.715007 0.272668 0.288614 -0.728418 -22.2617 0.520464 -0.58567 -2.24901 0.520466 -0.585671 91.3201 -29.5768 -104.28 38.8946 -9.64499 -7.82643 7.41687 -37.2102 -13.5259 -26.5405 -0.536696 -9.10537 -87.3751 -53.9176 83.3068 -22.0894 16.6907 -12.3188 -5.40471 13.9726 -3.29349 6.51863 -0.215796 -11.9271 7.79657 1.35653 4.62083 -9.249 0.300673 1.47676 
8.24665 100.726 26.7638 -146.413 -82.9168 -147.618 -172.581 -2.42182 88.8341 -17.5684 6.411 -0.867985 73.9932 9.76489 -1.65331 19.5191 -8.44267 8.63908 170.803 -1.42923 86.3537 -18.5492 -15.1323 -1.13753 70.1209 -5.45259 1.24017 27.8234 -0.0514232 2.36169 0.277141 7.50707 -90.4043 11.8605 0.360908 -0.845021 0.189349 0.32337 -0.860088 -22.3446 0.598181 -0.697493 -2.33195 0.598176 -0.6975 91.4014 -29.4337 -104.166 39.0695 -9.83685 -7.66443 7.38459 -37.2666 -13.8134 -26.7045 -0.511398 -9.22591 -87.1225 -52.933 83.517 -23.4154 15.937 -12.0413 -5.06542 13.7289 -3.64877 5.60435 -0.213223 -12.7669 7.10047 1.69346 6.16946 -8.9723 0.329066 1.96641 
